# xmcd
#
# Track frame offsets: 
#        150
#        13612
#        30135
#        44167
#        60107
#        78205
#        92407
#        111432
#        127395
#        142812
#        157287
#
# Disc length: 2369 seconds
#
# Revision: 1
# Processed by: cddbd v1.5.2PL0 Copyright (c) Steve Scherf et al.
# Submitted via: ExactAudioCopy v1.0b3
#
DISCID=88093f0b
DTITLE=VADER - GATE of GENERATION
DYEAR=2005
DGENRE=Reggae
TTITLE0=TURN ON THE FIRE
TTITLE1=SUPER STAR (feat. 湘南乃風)
TTITLE2=DEM FI GWAY
TTITLE3=GAME 2 GAME (feat. 4WD)
TTITLE4=BIG JAPAN
TTITLE5=MAKE A BRAND NEW DAY
TTITLE6=BROTHER
TTITLE7=WARNING (feat. KENTY-GROSS,SILVER KING)
TTITLE8=BVR HUNTING (feat. RYO the SKYWALKER,BOXER KID)
TTITLE9=大志 (feat. ARM STRONG)
TTITLE10=TRY
EXTD=YEAR: 2005
EXTT0=
EXTT1=
EXTT2=
EXTT3=
EXTT4=
EXTT5=
EXTT6=
EXTT7=
EXTT8=
EXTT9=
EXTT10=
PLAYORDER=
